Title                            : The Next Three Days
Year                             : 2010
Genre                            : Crime | Drama | Romance
iMDB URL                         : http://www.imdb.com/title/tt1458175/

Complete name                    : The.Next.Three.Days.2010.BRRIP.720P.H264-ZEKTORM.mp4
Format                           : MPEG-4
Format profile                   : Base Media
Codec ID                         : isom
File size                        : 2.54 GiB
Duration                         : 2h 13mn
Overall bit rate                 : 2730 Kbps
Subtitles                        : English (Format: srt)

Video
ID                               : 1
Format                           : AVC
Format/Info                      : Advanced Video Codec
Format profile                   : High@L4.0
Format settings, CABAC           : Yes
Format settings, ReFrames        : 12 frames
Codec ID                         : avc1
Codec ID/Info                    : Advanced Video Coding
Duration                         : 2h 13mn
Bit rate mode                    : Variable
Bit rate                         : 2519 Kbps
Width                            : 1280 pixels
Height                           : 544 pixels
Display aspect ratio             : 2.35
Frame rate mode                  : Constant
Frame rate                       : 23.976 fps
Resolution                       : 24 bits
Colorimetry                      : 4:2:0
Scan type                        : Progressive
Bits/(Pixel*Frame)               : 0.151
Stream size                      : 2.34 GiB (92%)
Title                            : Video
Writing library                  : x264

Audio
ID                               : 2
Format                           : AAC
Format/Info                      : Advanced Audio Codec
Format version                   : Version 4
Format profile                   : LC
Format settings, SBR             : Yes
Format settings, PS              : No
Codec ID                         : 40
Duration                         : 2h 13mn
Bit rate mode                    : Variable
Bit rate                         : 208 Kbps
Maximum bit rate                 : 258 Kbps
Channel(s)                       : 6 channels
Channel positions                : Front: L C R, Rear: L R, LFE
Sampling rate                    : 48.0 KHz
Resolution                       : 16 bits
Stream size                      : 198 MiB (8%)
Language                         : English



Screenshots:
 
http://img20.imageshack.us/img20/4862/snaptntd1.png
 
http://img828.imageshack.us/img828/9351/snaptntd2.png
 
http://img192.imageshack.us/img192/9775/snaptntd3.png
 
http://img638.imageshack.us/img638/5536/snaptntd4.png
